<svg width="30" height="31" viewBox="0 0 30 31" fill="none" xmlns="http://www.w3.org/2000/svg">
  <path
    d="M14.3438 24.8228C14.1771 24.6561 14.0938 24.4374 14.0938 24.1666C14.0938 23.8957 14.1771 23.677 14.3438 23.5103L21.4062 16.4478H5.9375C5.66667 16.4478 5.44271 16.3593 5.26562 16.1822C5.08854 16.0051 5 15.7811 5 15.5103C5 15.2395 5.08854 15.0155 5.26562 14.8384C5.44271 14.6614 5.66667 14.5728 5.9375 14.5728H21.4062L14.3438 7.51031C14.1771 7.34365 14.0938 7.11969 14.0938 6.83844C14.0938 6.55719 14.1771 6.33323 14.3438 6.16656C14.5104 5.9999 14.7292 5.91656 15 5.91656C15.2708 5.91656 15.4896 5.9999 15.6562 6.16656L24.3438 14.8541C24.4479 14.9582 24.5208 15.0624 24.5625 15.1666C24.6042 15.2707 24.625 15.3853 24.625 15.5103C24.625 15.6145 24.6042 15.7239 24.5625 15.8384C24.5208 15.953 24.4479 16.0624 24.3438 16.1666L15.6562 24.8541C15.4896 25.0207 15.2708 25.0989 15 25.0884C14.7292 25.078 14.5104 24.9895 14.3438 24.8228Z"
    fill="#E61771" />
</svg>