<svg width="30" height="30" viewBox="0 0 30 30" xmlns="http://www.w3.org/2000/svg">
  <path
    d="M15.6562 24.3125C15.8229 24.1458 15.9062 23.9271 15.9062 23.6562C15.9062 23.3854 15.8229 23.1667 15.6562 23L8.59375 15.9375H24.0625C24.3333 15.9375 24.5573 15.849 24.7344 15.6719C24.9115 15.4948 25 15.2708 25 15C25 14.7292 24.9115 14.5052 24.7344 14.3281C24.5573 14.151 24.3333 14.0625 24.0625 14.0625H8.59375L15.6562 7C15.8229 6.83333 15.9062 6.60938 15.9062 6.32812C15.9062 6.04688 15.8229 5.82292 15.6562 5.65625C15.4896 5.48958 15.2708 5.40625 15 5.40625C14.7292 5.40625 14.5104 5.48958 14.3438 5.65625L5.65625 14.3438C5.55208 14.4479 5.47917 14.5521 5.4375 14.6562C5.39583 14.7604 5.375 14.875 5.375 15C5.375 15.1042 5.39583 15.2135 5.4375 15.3281C5.47917 15.4427 5.55208 15.5521 5.65625 15.6562L14.3438 24.3438C14.5104 24.5104 14.7292 24.5885 15 24.5781C15.2708 24.5677 15.4896 24.4792 15.6562 24.3125Z" />
</svg>