<svg width="324" height="176" viewBox="0 0 324 176" fill="none" xmlns="http://www.w3.org/2000/svg">
  <path
    d="M0.000328857 176.501L0.000346429 146.802L7.28278 140.868C102.758 63.069 243.225 77.3983 321.024 172.874L323.979 176.5L0.000328857 176.501Z"
    fill="#E7E9E9" />
  <path fill-rule="evenodd" clip-rule="evenodd"
    d="M153 127C170.673 127 185 112.673 185 95C185 77.3269 170.673 63 153 63C135.327 63 121 77.3269 121 95C121 112.673 135.327 127 153 127Z"
    fill="#39C2C9" />
  <path fill-rule="evenodd" clip-rule="evenodd"
    d="M103 78C112.941 78 121 69.9411 121 60C121 50.0589 112.941 42 103 42C93.0589 42 85 50.0589 85 60C85 69.9411 93.0589 78 103 78Z"
    fill="#E61771" />
</svg>