<svg width="30" height="30" viewBox="0 0 30 30" fill="none" xmlns="http://www.w3.org/2000/svg">
  <path
    d="M20.75 26.25C20.2344 26.25 19.793 26.0664 19.4258 25.6992C19.0586 25.332 18.875 24.8906 18.875 24.375V22.3438H15.9375C15.4219 22.3438 14.9805 22.1602 14.6133 21.793C14.2461 21.4258 14.0625 20.9844 14.0625 20.4688V9.53125H11.1562V11.7188C11.1562 12.2344 10.9727 12.6758 10.6055 13.043C10.2383 13.4102 9.79688 13.5938 9.28125 13.5938H4.375C3.85938 13.5938 3.41797 13.4102 3.05078 13.043C2.68359 12.6758 2.5 12.2344 2.5 11.7188V5.625C2.5 5.10938 2.68359 4.66797 3.05078 4.30078C3.41797 3.93359 3.85938 3.75 4.375 3.75H9.28125C9.79688 3.75 10.2383 3.93359 10.6055 4.30078C10.9727 4.66797 11.1562 5.10938 11.1562 5.625V7.65625H18.875V5.625C18.875 5.10938 19.0586 4.66797 19.4258 4.30078C19.793 3.93359 20.2344 3.75 20.75 3.75H25.625C26.1406 3.75 26.582 3.93359 26.9492 4.30078C27.3164 4.66797 27.5 5.10938 27.5 5.625V11.7188C27.5 12.2344 27.3164 12.6758 26.9492 13.043C26.582 13.4102 26.1406 13.5938 25.625 13.5938H20.75C20.2344 13.5938 19.793 13.4102 19.4258 13.043C19.0586 12.6758 18.875 12.2344 18.875 11.7188V9.53125H15.9375V20.4688H18.875V18.2812C18.875 17.7656 19.0586 17.3242 19.4258 16.957C19.793 16.5898 20.2344 16.4062 20.75 16.4062H25.625C26.1406 16.4062 26.582 16.5898 26.9492 16.957C27.3164 17.3242 27.5 17.7656 27.5 18.2812V24.375C27.5 24.8906 27.3164 25.332 26.9492 25.6992C26.582 26.0664 26.1406 26.25 25.625 26.25H20.75ZM20.75 11.7188H25.625V5.625H20.75V11.7188ZM20.75 24.375H25.625V18.2812H20.75V24.375ZM4.375 11.7188H9.28125V5.625H4.375V11.7188Z"
    fill="#E61771" />
</svg>