<svg width="12" height="9" viewBox="0 0 12 9" fill="none" xmlns="http://www.w3.org/2000/svg">
  <path
    d="M4.03089 5.76355L2.40927 4.21182C2.13127 3.94581 1.79923 3.80542 1.41313 3.79064C1.02703 3.77586 0.694981 3.90148 0.416989 4.16749C0.138997 4.4335 0 4.75123 0 5.12069C0 5.49015 0.138997 5.80788 0.416989 6.07389L3.05792 8.60098C3.33591 8.86699 3.66023 9 4.03089 9C4.40154 9 4.72587 8.86699 5.00386 8.60098L11.583 2.26108C11.861 1.99507 12 1.68473 12 1.33005C12 0.97537 11.861 0.665024 11.583 0.399014C11.305 0.133004 10.9807 0 10.61 0C10.2394 0 9.91506 0.133004 9.63706 0.399014L4.03089 5.76355Z"
    fill="white" />
</svg>