<svg width="24" height="24" viewBox="0 0 24 24" fill="none" xmlns="http://www.w3.org/2000/svg">
  <rect width="24" height="24" rx="5" fill="#E61771" />
  <path
    d="M10.0309 13.7635L8.40927 12.2118C8.13127 11.9458 7.79923 11.8054 7.41313 11.7906C7.02703 11.7759 6.69498 11.9015 6.41699 12.1675C6.139 12.4335 6 12.7512 6 13.1207C6 13.4901 6.139 13.8079 6.41699 14.0739L9.05792 16.601C9.33591 16.867 9.66023 17 10.0309 17C10.4015 17 10.7259 16.867 11.0039 16.601L17.583 10.2611C17.861 9.99507 18 9.68473 18 9.33005C18 8.97537 17.861 8.66502 17.583 8.39901C17.305 8.133 16.9807 8 16.61 8C16.2394 8 15.9151 8.133 15.6371 8.39901L10.0309 13.7635Z"
    fill="white" />
</svg>