<svg width="20" height="20" viewBox="0 0 20 20" fill="none" xmlns="http://www.w3.org/2000/svg">
  <path
    d="M12.5633 10C12.5633 10.0833 12.5494 10.1597 12.5217 10.2292C12.4939 10.2986 12.4453 10.3681 12.3758 10.4375L8.25082 14.5625C8.13971 14.6736 7.9904 14.7257 7.8029 14.7187C7.6154 14.7118 7.4661 14.6528 7.35499 14.5417C7.2161 14.4028 7.15707 14.2535 7.1779 14.0937C7.19874 13.934 7.26471 13.7917 7.37582 13.6667L11.0425 10L7.37582 6.33333C7.26471 6.22222 7.20221 6.07291 7.18832 5.88541C7.17443 5.69791 7.23693 5.54861 7.37582 5.4375C7.48693 5.29861 7.63277 5.23958 7.81332 5.26041C7.99388 5.28125 8.14665 5.34722 8.27165 5.45833L12.3758 9.5625C12.4453 9.63194 12.4939 9.70139 12.5217 9.77083C12.5494 9.84027 12.5633 9.91666 12.5633 10Z"
    fill="#39444E" />
</svg>