<svg width="30" height="30" viewBox="0 0 30 30" fill="none" xmlns="http://www.w3.org/2000/svg">
  <path
    d="M11.25 13.125H5.625C5.10938 13.125 4.66797 12.9414 4.30078 12.5742C3.93359 12.207 3.75 11.7656 3.75 11.25V5.625C3.75 5.10938 3.93359 4.66797 4.30078 4.30078C4.66797 3.93359 5.10938 3.75 5.625 3.75H11.25C11.7656 3.75 12.207 3.93359 12.5742 4.30078C12.9414 4.66797 13.125 5.10938 13.125 5.625V11.25C13.125 11.7656 12.9414 12.207 12.5742 12.5742C12.207 12.9414 11.7656 13.125 11.25 13.125ZM5.625 11.25H11.25V5.625H5.625V11.25ZM11.25 26.25H5.625C5.10938 26.25 4.66797 26.0664 4.30078 25.6992C3.93359 25.332 3.75 24.8906 3.75 24.375V18.75C3.75 18.2344 3.93359 17.793 4.30078 17.4258C4.66797 17.0586 5.10938 16.875 5.625 16.875H11.25C11.7656 16.875 12.207 17.0586 12.5742 17.4258C12.9414 17.793 13.125 18.2344 13.125 18.75V24.375C13.125 24.8906 12.9414 25.332 12.5742 25.6992C12.207 26.0664 11.7656 26.25 11.25 26.25ZM5.625 24.375H11.25V18.75H5.625V24.375ZM24.375 13.125H18.75C18.2344 13.125 17.793 12.9414 17.4258 12.5742C17.0586 12.207 16.875 11.7656 16.875 11.25V5.625C16.875 5.10938 17.0586 4.66797 17.4258 4.30078C17.793 3.93359 18.2344 3.75 18.75 3.75H24.375C24.8906 3.75 25.332 3.93359 25.6992 4.30078C26.0664 4.66797 26.25 5.10938 26.25 5.625V11.25C26.25 11.7656 26.0664 12.207 25.6992 12.5742C25.332 12.9414 24.8906 13.125 24.375 13.125ZM18.75 11.25H24.375V5.625H18.75V11.25ZM24.375 26.25H18.75C18.2344 26.25 17.793 26.0664 17.4258 25.6992C17.0586 25.332 16.875 24.8906 16.875 24.375V18.75C16.875 18.2344 17.0586 17.793 17.4258 17.4258C17.793 17.0586 18.2344 16.875 18.75 16.875H24.375C24.8906 16.875 25.332 17.0586 25.6992 17.4258C26.0664 17.793 26.25 18.2344 26.25 18.75V24.375C26.25 24.8906 26.0664 25.332 25.6992 25.6992C25.332 26.0664 24.8906 26.25 24.375 26.25ZM18.75 24.375H24.375V18.75H18.75V24.375Z"
    fill="#39444E" />
</svg>