<svg width="30" height="30" viewBox="0 0 30 30" xmlns="http://www.w3.org/2000/svg">
  <path
    d="M15.0312 27.5C13.3229 27.5 11.7083 27.1719 10.1875 26.5156C8.66667 25.8594 7.33854 24.9688 6.20312 23.8438C5.06771 22.7188 4.17188 21.3958 3.51562 19.875C2.85938 18.3542 2.53125 16.7396 2.53125 15.0312C2.53125 11.7396 3.64062 8.90625 5.85938 6.53125C8.07812 4.15625 10.8333 2.84375 14.125 2.59375V5.78125C11.7292 6.01042 9.72917 7.00521 8.125 8.76562C6.52083 10.526 5.71875 12.6146 5.71875 15.0312C5.71875 17.6146 6.625 19.8073 8.4375 21.6094C10.25 23.4115 12.4479 24.3125 15.0312 24.3125C16.5312 24.3125 17.9479 23.974 19.2812 23.2969C20.6146 22.6198 21.75 21.6667 22.6875 20.4375L25.4375 22.0312C24.2292 23.7604 22.7135 25.1042 20.8906 26.0625C19.0677 27.0208 17.1146 27.5 15.0312 27.5ZM26.3438 20.3438L23.5938 18.8125C23.8438 18.1667 24.0312 17.526 24.1562 16.8906C24.2812 16.2552 24.3438 15.625 24.3438 15C24.3438 12.5833 23.5469 10.4896 21.9531 8.71875C20.3594 6.94792 18.375 5.95833 16 5.75V2.5625C19.2708 2.79167 22.0104 4.08854 24.2188 6.45312C26.4271 8.81771 27.5312 11.625 27.5312 14.875C27.5312 15.8125 27.4323 16.7344 27.2344 17.6406C27.0365 18.5469 26.7396 19.4479 26.3438 20.3438Z" />
</svg>