<svg width="109" height="739" viewBox="0 0 109 739" fill="none" xmlns="http://www.w3.org/2000/svg">
  <path
    d="M55.0107 736.185C54.3454 736.185 53.7324 736.073 53.1719 735.85C52.6159 735.626 52.1351 735.294 51.7295 734.852C51.3239 734.41 51.0094 733.858 50.7861 733.197C50.5628 732.536 50.4512 731.778 50.4512 730.921C50.4512 730.069 50.5583 729.326 50.7725 728.692C50.9912 728.059 51.3079 727.507 51.7227 727.038C52.1283 726.582 52.609 726.236 53.165 725.999C53.721 725.757 54.3431 725.637 55.0312 725.637C55.373 725.637 55.6921 725.662 55.9883 725.712C56.2891 725.762 56.5671 725.826 56.8223 725.903C57.041 725.972 57.2643 726.058 57.4922 726.163C57.7246 726.263 57.9525 726.375 58.1758 726.498V728.132H58.0664C57.9479 728.022 57.7952 727.89 57.6084 727.735C57.4215 727.58 57.1937 727.428 56.9248 727.277C56.665 727.136 56.3825 727.02 56.0771 726.929C55.7718 726.838 55.4186 726.792 55.0176 726.792C54.5846 726.792 54.1745 726.881 53.7871 727.059C53.3997 727.236 53.0602 727.498 52.7686 727.845C52.4814 728.191 52.2581 728.626 52.0986 729.15C51.9391 729.674 51.8594 730.265 51.8594 730.921C51.8594 731.618 51.9437 732.22 52.1123 732.726C52.2809 733.227 52.5111 733.651 52.8027 733.997C53.0853 734.334 53.418 734.59 53.8008 734.763C54.1836 734.931 54.5892 735.016 55.0176 735.016C55.4095 735.016 55.7718 734.968 56.1045 734.872C56.4372 734.776 56.7334 734.656 56.9932 734.51C57.2438 734.368 57.4603 734.225 57.6426 734.079C57.8249 733.929 57.9684 733.801 58.0732 733.696H58.1758V735.31C57.9525 735.414 57.7406 735.515 57.54 735.61C57.3441 735.706 57.1048 735.799 56.8223 735.891C56.526 735.986 56.2503 736.059 55.9951 736.109C55.7445 736.16 55.4163 736.185 55.0107 736.185ZM65.3262 733.689C65.3262 734.059 65.2555 734.387 65.1143 734.674C64.973 734.956 64.7793 735.193 64.5332 735.385C64.2233 735.626 63.8975 735.79 63.5557 735.877C63.2184 735.959 62.8128 736 62.3389 736H59.3379V728.364H62.1406C62.7012 728.364 63.1113 728.382 63.3711 728.419C63.6309 728.451 63.8883 728.537 64.1436 728.679C64.4124 728.825 64.6107 729.018 64.7383 729.26C64.8659 729.501 64.9297 729.788 64.9297 730.121C64.9297 730.486 64.8294 730.814 64.6289 731.105C64.4284 731.393 64.1618 731.616 63.8291 731.775L63.8633 731.823C64.278 731.928 64.6243 732.14 64.9023 732.459C65.1849 732.778 65.3262 733.188 65.3262 733.689ZM63.6104 730.319C63.6104 730.146 63.5807 729.996 63.5215 729.868C63.4668 729.741 63.3688 729.64 63.2275 729.567C63.0635 729.481 62.8789 729.431 62.6738 729.417C62.4733 729.399 62.193 729.39 61.833 729.39H60.6094V731.481H62.0859C62.4004 731.481 62.6237 731.468 62.7559 731.44C62.888 731.409 63.0339 731.345 63.1934 731.249C63.3438 731.158 63.4508 731.035 63.5146 730.88C63.5785 730.725 63.6104 730.538 63.6104 730.319ZM64 733.696C64 733.437 63.9613 733.229 63.8838 733.074C63.8109 732.915 63.6468 732.773 63.3916 732.65C63.2321 732.573 63.0612 732.525 62.8789 732.507C62.6966 732.489 62.4437 732.479 62.1201 732.479H60.6094V734.975H61.7236C62.1839 734.975 62.5417 734.956 62.7969 734.92C63.0521 734.883 63.2708 734.811 63.4531 734.701C63.6445 734.583 63.7835 734.446 63.8701 734.291C63.9567 734.136 64 733.938 64 733.696ZM69.9951 736.178C68.7783 736.178 67.8327 735.836 67.1582 735.152C66.4883 734.464 66.1533 733.489 66.1533 732.227C66.1533 730.982 66.4792 729.993 67.1309 729.26C67.7826 728.521 68.6348 728.152 69.6875 728.152C70.1615 728.152 70.5807 728.221 70.9453 728.357C71.3099 728.494 71.6289 728.708 71.9023 729C72.1758 729.292 72.3854 729.649 72.5312 730.073C72.6771 730.493 72.75 731.007 72.75 731.618V732.315H67.459C67.459 733.204 67.6823 733.883 68.1289 734.353C68.5755 734.822 69.193 735.057 69.9814 735.057C70.264 735.057 70.5397 735.025 70.8086 734.961C71.082 734.897 71.3281 734.815 71.5469 734.715C71.7793 734.61 71.9753 734.51 72.1348 734.414C72.2943 734.314 72.4264 734.22 72.5312 734.134H72.6064V735.535C72.4561 735.594 72.2692 735.67 72.0459 735.761C71.8226 735.847 71.6221 735.916 71.4443 735.966C71.1937 736.034 70.9658 736.087 70.7607 736.123C70.5602 736.16 70.305 736.178 69.9951 736.178ZM71.499 731.331C71.4899 730.985 71.4489 730.686 71.376 730.436C71.3031 730.185 71.1982 729.973 71.0615 729.8C70.9111 729.608 70.7174 729.463 70.4805 729.362C70.248 729.262 69.9587 729.212 69.6123 729.212C69.2705 729.212 68.9788 729.264 68.7373 729.369C68.5003 729.469 68.2839 729.618 68.0879 729.813C67.8965 730.014 67.7507 730.237 67.6504 730.483C67.5501 730.725 67.4863 731.007 67.459 731.331H71.499ZM80.4541 731.98C80.4541 733.252 80.1488 734.266 79.5381 735.022C78.932 735.774 78.1641 736.15 77.2344 736.15C76.8561 736.15 76.5212 736.107 76.2295 736.021C75.9378 735.934 75.6393 735.799 75.334 735.617V738.816H74.0488V728.364H75.334V729.164C75.653 728.877 76.0062 728.638 76.3936 728.446C76.7855 728.25 77.2116 728.152 77.6719 728.152C78.5469 728.152 79.2282 728.499 79.7158 729.191C80.208 729.884 80.4541 730.814 80.4541 731.98ZM79.1279 732.124C79.1279 731.254 78.9889 730.579 78.7109 730.101C78.4329 729.618 77.9818 729.376 77.3574 729.376C76.9928 729.376 76.6396 729.458 76.2979 729.622C75.9606 729.782 75.6393 729.989 75.334 730.244V734.571C75.6712 734.735 75.9583 734.847 76.1953 734.906C76.4368 734.965 76.7126 734.995 77.0225 734.995C77.6878 734.995 78.2051 734.751 78.5742 734.264C78.9434 733.776 79.1279 733.063 79.1279 732.124ZM87.8164 736H86.5312V732.562H83.0723V736H81.7871V728.364H83.0723V731.454H86.5312V728.364H87.8164V736ZM95.6777 728.364L91.5693 738.816H90.1953L91.5625 735.631L88.7871 728.364H90.1748L92.2598 734.018L94.3379 728.364H95.6777ZM102.227 729.492H99.6289V736H98.3438V729.492H95.7461V728.364H102.227V729.492ZM108.967 733.635C108.967 734.004 108.892 734.339 108.741 734.64C108.595 734.94 108.395 735.184 108.14 735.371C107.839 735.599 107.518 735.761 107.176 735.856C106.834 735.952 106.394 736 105.856 736H103.184V728.364H104.469V731.338H105.891C106.465 731.338 106.909 731.368 107.224 731.427C107.543 731.486 107.859 731.632 108.174 731.864C108.438 732.06 108.636 732.311 108.769 732.616C108.901 732.922 108.967 733.261 108.967 733.635ZM107.641 733.655C107.641 733.423 107.6 733.22 107.518 733.047C107.44 732.869 107.31 732.726 107.128 732.616C106.937 732.502 106.718 732.434 106.472 732.411C106.23 732.388 105.882 732.377 105.426 732.377H104.469V734.975H105.398C105.854 734.975 106.207 734.956 106.458 734.92C106.709 734.879 106.925 734.804 107.107 734.694C107.294 734.576 107.429 734.437 107.511 734.277C107.597 734.113 107.641 733.906 107.641 733.655Z"
    fill="#39444E" />
  <path
    d="M15.0312 27.5C13.3229 27.5 11.7083 27.1719 10.1875 26.5156C8.66667 25.8594 7.33854 24.9688 6.20312 23.8438C5.06771 22.7188 4.17188 21.3958 3.51562 19.875C2.85938 18.3542 2.53125 16.7396 2.53125 15.0312C2.53125 11.7396 3.64062 8.90625 5.85938 6.53125C8.07812 4.15625 10.8333 2.84375 14.125 2.59375V5.78125C11.7292 6.01042 9.72917 7.00521 8.125 8.76562C6.52083 10.526 5.71875 12.6146 5.71875 15.0312C5.71875 17.6146 6.625 19.8073 8.4375 21.6094C10.25 23.4115 12.4479 24.3125 15.0312 24.3125C16.5312 24.3125 17.9479 23.974 19.2812 23.2969C20.6146 22.6198 21.75 21.6667 22.6875 20.4375L25.4375 22.0312C24.2292 23.7604 22.7135 25.1042 20.8906 26.0625C19.0677 27.0208 17.1146 27.5 15.0312 27.5ZM26.3438 20.3438L23.5938 18.8125C23.8438 18.1667 24.0312 17.526 24.1562 16.8906C24.2812 16.2552 24.3438 15.625 24.3438 15C24.3438 12.5833 23.5469 10.4896 21.9531 8.71875C20.3594 6.94792 18.375 5.95833 16 5.75V2.5625C19.2708 2.79167 22.0104 4.08854 24.2188 6.45312C26.4271 8.81771 27.5312 11.625 27.5312 14.875C27.5312 15.8125 27.4323 16.7344 27.2344 17.6406C27.0365 18.5469 26.7396 19.4479 26.3438 20.3438Z"
    fill="#E61771" />
</svg>