<svg width="30" height="30" viewBox="0 0 30 30" fill="none" xmlns="http://www.w3.org/2000/svg">
  <path
    d="M8.15625 26.25C7.65625 26.25 7.21875 26.0625 6.84375 25.6875C6.46875 25.3125 6.28125 24.875 6.28125 24.375V6.5625H5.9375C5.67188 6.5625 5.44922 6.47214 5.26953 6.29141C5.08984 6.11066 5 5.8867 5 5.61953C5 5.35234 5.08984 5.13021 5.26953 4.95312C5.44922 4.77604 5.67188 4.6875 5.9375 4.6875H10.875C10.875 4.41667 10.9648 4.19271 11.1445 4.01562C11.3242 3.83854 11.5469 3.75 11.8125 3.75H18.1875C18.4531 3.75 18.6758 3.83984 18.8555 4.01953C19.0352 4.19922 19.125 4.42188 19.125 4.6875H24.0625C24.3281 4.6875 24.5508 4.77786 24.7305 4.95859C24.9102 5.13934 25 5.3633 25 5.63047C25 5.89766 24.9102 6.11979 24.7305 6.29688C24.5508 6.47396 24.3281 6.5625 24.0625 6.5625H23.7188V24.375C23.7188 24.875 23.5312 25.3125 23.1562 25.6875C22.7812 26.0625 22.3438 26.25 21.8438 26.25H8.15625ZM8.15625 6.5625V24.375H21.8438V6.5625H8.15625ZM11.4688 20.75C11.4688 21.0156 11.5591 21.2383 11.7398 21.418C11.9206 21.5977 12.1446 21.6875 12.4117 21.6875C12.6789 21.6875 12.901 21.5977 13.0781 21.418C13.2552 21.2383 13.3438 21.0156 13.3438 20.75V10.1562C13.3438 9.89062 13.2534 9.66797 13.0727 9.48828C12.8919 9.30859 12.6679 9.21875 12.4008 9.21875C12.1336 9.21875 11.9115 9.30859 11.7344 9.48828C11.5573 9.66797 11.4688 9.89062 11.4688 10.1562V20.75ZM16.6562 20.75C16.6562 21.0156 16.7466 21.2383 16.9273 21.418C17.1081 21.5977 17.3321 21.6875 17.5992 21.6875C17.8664 21.6875 18.0885 21.5977 18.2656 21.418C18.4427 21.2383 18.5312 21.0156 18.5312 20.75V10.1562C18.5312 9.89062 18.4409 9.66797 18.2602 9.48828C18.0794 9.30859 17.8554 9.21875 17.5883 9.21875C17.3211 9.21875 17.099 9.30859 16.9219 9.48828C16.7448 9.66797 16.6562 9.89062 16.6562 10.1562V20.75Z"
    fill="#E61771" />
</svg>