<svg width="30" height="30" viewBox="0 0 30 30" xmlns="http://www.w3.org/2000/svg">
  <path
    d="M3.875 27.9062C3.375 27.9062 2.9375 27.7188 2.5625 27.3438C2.1875 26.9688 2 26.5312 2 26.0312V7.28125C2 6.78125 2.1875 6.34375 2.5625 5.96875C2.9375 5.59375 3.375 5.40625 3.875 5.40625H16.5312L14.6562 7.28125H3.875V26.0312H22.625V15.1562L24.5 13.2812V26.0312C24.5 26.5312 24.3125 26.9688 23.9375 27.3438C23.5625 27.7188 23.125 27.9062 22.625 27.9062H3.875ZM18.9375 5.65625L20.2812 6.96875L11.375 15.8438V18.5312H14.0312L22.9688 9.59375L24.2812 10.9062L15.375 19.8438C15.2083 20.0104 15.0052 20.1458 14.7656 20.25C14.526 20.3542 14.2812 20.4062 14.0312 20.4062H10.4375C10.1667 20.4062 9.94271 20.3177 9.76562 20.1406C9.58854 19.9635 9.5 19.7396 9.5 19.4688V15.875C9.5 15.625 9.55208 15.3802 9.65625 15.1406C9.76042 14.901 9.89583 14.6979 10.0625 14.5312L18.9375 5.65625ZM24.2812 10.9062L18.9375 5.65625L22.0625 2.53125C22.4167 2.17708 22.8594 2 23.3906 2C23.9219 2 24.3646 2.1875 24.7188 2.5625L27.3438 5.21875C27.6979 5.59375 27.875 6.03646 27.875 6.54688C27.875 7.05729 27.6875 7.48958 27.3125 7.84375L24.2812 10.9062Z" />
</svg>