<svg width="30" height="30" viewBox="0 0 30 30" fill="none" xmlns="http://www.w3.org/2000/svg">
  <path
    d="M13.7498 25C13.3957 25 13.0988 24.8802 12.8592 24.6406C12.6196 24.401 12.4998 24.1042 12.4998 23.75V16.25L5.03109 6.71875C4.73942 6.36458 4.69775 5.98958 4.90609 5.59375C5.11442 5.19792 5.43734 5 5.87484 5H24.1248C24.5623 5 24.8853 5.19792 25.0936 5.59375C25.3019 5.98958 25.2603 6.36458 24.9686 6.71875L17.4998 16.25V23.75C17.4998 24.1042 17.38 24.401 17.1405 24.6406C16.9009 24.8802 16.604 25 16.2498 25H13.7498ZM14.9998 16.375L22.4998 6.875H7.49984L14.9998 16.375Z"
    fill="#39444E" />
</svg>