<svg width="60" height="60" viewBox="0 0 60 60" fill="none" xmlns="http://www.w3.org/2000/svg">
  <path
    d="M30.1984 42.5C30.7328 42.5 31.1771 42.3203 31.5312 41.9609C31.8854 41.6016 32.0625 41.1562 32.0625 40.625V29.375C32.0625 28.8438 31.8818 28.3984 31.5203 28.0391C31.1588 27.6797 30.7109 27.5 30.1766 27.5C29.6422 27.5 29.1979 27.6797 28.8438 28.0391C28.4896 28.3984 28.3125 28.8438 28.3125 29.375V40.625C28.3125 41.1562 28.4932 41.6016 28.8547 41.9609C29.2162 42.3203 29.6641 42.5 30.1984 42.5ZM29.9989 22.875C30.583 22.875 31.0729 22.6833 31.4688 22.3C31.8646 21.9167 32.0625 21.4417 32.0625 20.875C32.0625 20.2729 31.865 19.7682 31.4699 19.3609C31.0748 18.9536 30.5852 18.75 30.0011 18.75C29.417 18.75 28.9271 18.9536 28.5312 19.3609C28.1354 19.7682 27.9375 20.2729 27.9375 20.875C27.9375 21.4417 28.135 21.9167 28.5301 22.3C28.9252 22.6833 29.4148 22.875 29.9989 22.875ZM30.0166 55C26.5694 55 23.3298 54.3438 20.2979 53.0312C17.266 51.7188 14.6146 49.9271 12.3438 47.6562C10.0729 45.3854 8.28125 42.7325 6.96875 39.6974C5.65625 36.6624 5 33.4195 5 29.9688C5 26.518 5.65625 23.2751 6.96875 20.2401C8.28125 17.205 10.0729 14.5625 12.3438 12.3125C14.6146 10.0625 17.2675 8.28125 20.3026 6.96875C23.3376 5.65625 26.5805 5 30.0312 5C33.482 5 36.7249 5.65625 39.7599 6.96875C42.795 8.28125 45.4375 10.0625 47.6875 12.3125C49.9375 14.5625 51.7188 17.2083 53.0312 20.25C54.3438 23.2917 55 26.5361 55 29.9834C55 33.4306 54.3438 36.6702 53.0312 39.7021C51.7188 42.734 49.9375 45.3816 47.6875 47.6447C45.4375 49.9079 42.7917 51.6996 39.75 53.0197C36.7083 54.3399 33.4639 55 30.0166 55ZM30.0312 51.25C35.9271 51.25 40.9375 49.1771 45.0625 45.0312C49.1875 40.8854 51.25 35.8646 51.25 29.9688C51.25 24.0729 49.1914 19.0625 45.0742 14.9375C40.957 10.8125 35.9323 8.75 30 8.75C24.125 8.75 19.1146 10.8086 14.9688 14.9258C10.8229 19.043 8.75 24.0677 8.75 30C8.75 35.875 10.8229 40.8854 14.9688 45.0312C19.1146 49.1771 24.1354 51.25 30.0312 51.25Z"
    fill="#39C2C9" />
</svg>