<svg width="30" height="30" viewBox="0 0 30 30" fill="none" xmlns="http://www.w3.org/2000/svg">
  <path
    d="M14.1562 16.0625V20.3125C14.1562 20.5781 14.2466 20.8008 14.4273 20.9805C14.6081 21.1602 14.8321 21.25 15.0992 21.25C15.3664 21.25 15.5885 21.1602 15.7656 20.9805C15.9427 20.8008 16.0312 20.5781 16.0312 20.3125V16.0625H20.3125C20.5781 16.0625 20.8008 15.9721 20.9805 15.7914C21.1602 15.6107 21.25 15.3867 21.25 15.1195C21.25 14.8523 21.1602 14.6302 20.9805 14.4531C20.8008 14.276 20.5781 14.1875 20.3125 14.1875H16.0312V9.6875C16.0312 9.42188 15.9409 9.19922 15.7602 9.01953C15.5794 8.83984 15.3554 8.75 15.0883 8.75C14.8211 8.75 14.599 8.83984 14.4219 9.01953C14.2448 9.19922 14.1562 9.42188 14.1562 9.6875V14.1875H9.6875C9.42188 14.1875 9.19922 14.2779 9.01953 14.4586C8.83984 14.6393 8.75 14.8633 8.75 15.1305C8.75 15.3977 8.83984 15.6198 9.01953 15.7969C9.19922 15.974 9.42188 16.0625 9.6875 16.0625H14.1562ZM15.0083 27.5C13.2847 27.5 11.6649 27.1719 10.1489 26.5156C8.63298 25.8594 7.30729 24.9635 6.17188 23.8281C5.03646 22.6927 4.14062 21.3662 3.48438 19.8487C2.82812 18.3312 2.5 16.7098 2.5 14.9844C2.5 13.259 2.82812 11.6375 3.48438 10.12C4.14062 8.60251 5.03646 7.28125 6.17188 6.15625C7.30729 5.03125 8.63376 4.14062 10.1513 3.48438C11.6688 2.82812 13.2902 2.5 15.0156 2.5C16.741 2.5 18.3625 2.82812 19.88 3.48438C21.3975 4.14062 22.7188 5.03125 23.8438 6.15625C24.9688 7.28125 25.8594 8.60417 26.5156 10.125C27.1719 11.6458 27.5 13.2681 27.5 14.9917C27.5 16.7153 27.1719 18.3351 26.5156 19.8511C25.8594 21.367 24.9688 22.6908 23.8438 23.8224C22.7188 24.954 21.3958 25.8498 19.875 26.5099C18.3542 27.17 16.7319 27.5 15.0083 27.5ZM15.0156 25.625C17.9635 25.625 20.4688 24.5885 22.5312 22.5156C24.5938 20.4427 25.625 17.9323 25.625 14.9844C25.625 12.0365 24.5957 9.53125 22.5371 7.46875C20.4785 5.40625 17.9661 4.375 15 4.375C12.0625 4.375 9.55729 5.40429 7.48438 7.46288C5.41146 9.52148 4.375 12.0339 4.375 15C4.375 17.9375 5.41146 20.4427 7.48438 22.5156C9.55729 24.5885 12.0677 25.625 15.0156 25.625Z"
    fill="white" />
</svg>