<svg width="16" height="19" viewBox="0 0 16 19" fill="none" xmlns="http://www.w3.org/2000/svg">
  <path
    d="M14.25 18.3333H1.75C1.41667 18.3333 1.125 18.2083 0.875 17.9583C0.625 17.7083 0.5 17.4166 0.5 17.0833V6.04159C0.5 5.70825 0.625 5.41659 0.875 5.16659C1.125 4.91659 1.41667 4.79159 1.75 4.79159H4.04167C4.04167 3.69436 4.40972 2.76034 5.14583 1.9895C5.88194 1.21867 6.79861 0.833252 7.89583 0.833252C8.99306 0.833252 9.94444 1.21919 10.75 1.99106C11.5556 2.76294 11.9583 3.69645 11.9583 4.79159H14.25C14.5833 4.79159 14.875 4.91659 15.125 5.16659C15.375 5.41659 15.5 5.70825 15.5 6.04159V17.0833C15.5 17.4166 15.375 17.7083 15.125 17.9583C14.875 18.2083 14.5833 18.3333 14.25 18.3333ZM5.29167 4.79159H10.7083C10.7083 4.0277 10.4479 3.38534 9.92708 2.8645C9.40625 2.34367 8.76389 2.08325 8 2.08325C7.23611 2.08325 6.59375 2.34367 6.07292 2.8645C5.55208 3.38534 5.29167 4.0277 5.29167 4.79159ZM14.25 17.0833V6.04159H1.75V17.0833H14.25ZM7.99425 11.0416C9.0182 11.0416 9.94528 10.6839 10.7755 9.96867C11.6057 9.25339 12.0208 8.45131 12.0208 7.56242C12.0208 7.40964 11.9583 7.27422 11.8333 7.15617C11.7083 7.03811 11.5545 6.97909 11.3719 6.97909C11.2214 6.97909 11.0871 7.03117 10.9689 7.13534C10.8508 7.2395 10.7778 7.37492 10.75 7.54159C10.6111 8.19436 10.2812 8.73256 9.76042 9.15617C9.23958 9.57978 8.65278 9.79159 8 9.79159C7.34722 9.79159 6.76042 9.57978 6.23958 9.15617C5.71875 8.73256 5.38889 8.19436 5.25 7.54159C5.22222 7.37492 5.14583 7.2395 5.02083 7.13534C4.89583 7.03117 4.75694 6.97909 4.60417 6.97909C4.4375 6.97909 4.29167 7.03811 4.16667 7.15617C4.04167 7.27422 3.97917 7.40964 3.97917 7.56242C3.97917 8.45227 4.39236 9.25459 5.21875 9.9694C6.04514 10.6842 6.97031 11.0416 7.99425 11.0416Z"
    fill="white" />
</svg>