<svg xmlns="http://www.w3.org/2000/svg" style="display: none;">
  <symbol id="icon-name1" viewBox="0 0 30 30">
    <path
      d="M9.84375 13.5625C9.47673 13.5625 9.19747 13.401 9.00597 13.0781C8.81449 12.7552 8.82292 12.4375 9.03125 12.125L14.25 3.78125C14.433 3.48958 14.6923 3.34375 15.0279 3.34375C15.3635 3.34375 15.625 3.48958 15.8125 3.78125L21.0312 12.125C21.2396 12.4375 21.248 12.7552 21.0565 13.0781C20.865 13.401 20.5858 13.5625 20.2188 13.5625H9.84375ZM22.0625 27.5C20.5208 27.5 19.2292 26.9792 18.1875 25.9375C17.1458 24.8958 16.625 23.6042 16.625 22.0625C16.625 20.5208 17.1458 19.2292 18.1875 18.1875C19.2292 17.1458 20.5208 16.625 22.0625 16.625C23.6042 16.625 24.8958 17.1458 25.9375 18.1875C26.9792 19.2292 27.5 20.5208 27.5 22.0625C27.5 23.6042 26.9792 24.8958 25.9375 25.9375C24.8958 26.9792 23.6042 27.5 22.0625 27.5ZM4.6875 26.7188C4.42188 26.7188 4.19922 26.6289 4.01953 26.4492C3.83984 26.2695 3.75 26.0469 3.75 25.7812V18.1562C3.75 17.8906 3.83984 17.668 4.01953 17.4883C4.19922 17.3086 4.42188 17.2188 4.6875 17.2188H12.3125C12.5781 17.2188 12.8008 17.3086 12.9805 17.4883C13.1602 17.668 13.25 17.8906 13.25 18.1562V25.7812C13.25 26.0469 13.1602 26.2695 12.9805 26.4492C12.8008 26.6289 12.5781 26.7188 12.3125 26.7188H4.6875ZM22.0652 25.625C23.0634 25.625 23.9062 25.2804 24.5938 24.5911C25.2812 23.9019 25.625 23.0581 25.625 22.0599C25.625 21.0616 25.2804 20.2188 24.5911 19.5312C23.9019 18.8438 23.0581 18.5 22.0598 18.5C21.0616 18.5 20.2188 18.8446 19.5312 19.5339C18.8438 20.2231 18.5 21.0669 18.5 22.0651C18.5 23.0634 18.8446 23.9062 19.5339 24.5938C20.2231 25.2812 21.0669 25.625 22.0652 25.625ZM5.625 24.8438H11.375V19.0938H5.625V24.8438ZM11.5312 11.6875H18.5312L15.0312 6.03125L11.5312 11.6875Z"
      fill="#E61771" />
  </symbol>


</svg>